<?xml version="1.0" encoding="utf-8"?>
<!-- Generator: Adobe Illustrator 22.0.1, SVG Export Plug-In . SVG Version: 6.00 Build 0)  -->
<svg version="1.1" id="Layer_1" xmlns="http://www.w3.org/2000/svg" xmlns:xlink="http://www.w3.org/1999/xlink" x="0px" y="0px"
	 viewBox="0 0 122.3 95" style="enable-background:new 0 0 122.3 95;" xml:space="preserve">
<style type="text/css">
	.st0{fill:none;stroke:#4D4D4D;stroke-width:7;stroke-miterlimit:10;}
	.st1{fill:#4D4D4D;}
</style>
<circle class="st0" cx="64.6" cy="47.5" r="44"/>
<g>
	<g>
		<path class="st1" d="M88.8,52.9c3.1-0.1,6.2-0.2,9.3-0.3c2.8-0.1,7.6-1.2,10.1,0.1c2.3,1.2,4.1,5.4,5.5,7.6
			c1.9,2.9,3.8,5.9,5.8,8.8c1.1,1.6,3.6,0.1,2.6-1.5c-2.3-3.5-4.5-7-6.8-10.4c-1.3-2-3.1-6.6-5.3-7.8c-2-1.1-5.9,0-8.2,0
			c-4.3,0.1-8.7,0.3-13,0.4C86.9,49.9,86.9,52.9,88.8,52.9L88.8,52.9z"/>
	</g>
</g>
<g>
	<g>
		<path class="st1" d="M0.7,41c4.2,2.4,8.5,4.8,12.7,7.3c2.6,1.5,5.7,4.1,8.8,4.2c3.6,0.2,7.2-2.9,10.1-4.6c4.3-2.5,8.6-5,12.9-7.5
			c1.7-1,0.2-3.6-1.5-2.6c-3.2,1.9-6.4,3.8-9.6,5.7c-3.5,2-9,6.7-13.3,5.5c-2.9-0.8-6.3-3.6-9-5.1c-3.2-1.8-6.3-3.6-9.5-5.4
			C0.6,37.4-0.9,40,0.7,41L0.7,41z"/>
	</g>
</g>
</svg>
