<?xml version="1.0" encoding="utf-8"?>
<!-- Generator: Adobe Illustrator 22.0.1, SVG Export Plug-In . SVG Version: 6.00 Build 0)  -->
<svg version="1.1" id="Layer_1" xmlns="http://www.w3.org/2000/svg" xmlns:xlink="http://www.w3.org/1999/xlink" x="0px" y="0px"
	 viewBox="0 0 156.1 320.6" style="enable-background:new 0 0 156.1 320.6;" xml:space="preserve">
<style type="text/css">
	.st0{fill:#134500;}
	.st1{fill:#A20035;}
	.st2{fill:#5C1B00;}
	.st3{fill:#10005C;}
	.st4{fill:#731F00;}
	.st5{fill:#8B7900;}
	.st6{fill:#2AB900;}
	.st7{fill:#00B940;}
	.st8{fill:#004508;}
</style>
<g>
	<g>
		<path class="st0" d="M114.2,318.7c-2.1-11.6,4.4-25.7-7.7-33.4c-6-3.8-12.3-6.3-17.8-11c-5.1-4.3-9.6-9.4-13.3-15
			c-16.9-25.3-18.1-56.8-12-85.8c4-19.1,10.7-37.5,17.4-55.8c0.7-1.8-2.2-2.6-2.9-0.8c-11.4,31-23.5,63.9-20.6,97.5
			c2.2,25,13,50.8,34.1,65.7c6.7,4.7,17.5,7,19.5,16c1.7,7.6-1,15.6,0.4,23.4C111.6,321.4,114.5,320.6,114.2,318.7L114.2,318.7z"/>
	</g>
</g>
<g>
	<g>
		<path class="st1" d="M82.6,115.8c-23.4-21.5-40.9-49-50.1-79.4C29.4,26.2,26.1,1.6,43.7,3.1c9.8,0.9,15.1,10.4,17.5,18.7
			c2.6,8.6,4.2,17.6,6.2,26.4c4.7,20.8,9.4,41.6,14.1,62.4c1-0.3,1.9-0.5,2.9-0.8c-7.3-28,9.8-60.1,37.5-69.1
			c3.3-1.1,6.9-1.9,10.4-1c8,2.1,2.6,10.3,0,14.7c-4.4,7.4-9.1,14.6-14.2,21.5c-10.5,14.2-22.7,27.1-36,38.7c-1.2,1,0.1,2.8,1.5,2.5
			c15-3.2,30.5-5.5,45.9-6.1c7.4-0.3,13.7,1.4,17.9,8c3,4.8,5.3,11.7,5.8,17.4c0.9,10.6-13.2,9-19.8,6.7c-7.2-2.5-13.6-7-19.4-11.9
			c-9.2-7.7-18.1-16-30-19.2c-1.2-0.3-2.1,0.7-1.8,1.8c2.2,11.3,4.5,22.5,6.7,33.8c1.5,7.7,6.9,25.3-4.5,28.3
			c-11.6,3.1-17.9-11.6-17.4-20.6c0.6-11.2,6.8-21.5,12.6-30.8c0.8-1.3-0.8-2.8-2.1-2.1c-10.6,6.1-21.2,12.3-31.9,18.4
			c-4.9,2.8-9.9,6.2-15.5,7.2c-7.7,1.4-13.1-4.6-10.4-12c4.2-11.4,21-11,30.9-11c12.7,0,25.3,1.8,37.5,5.2c1.4,0.4,2.6-1.5,1.5-2.5
			c-8.6-7.6-19.5-10.6-30.2-14c-11.1-3.6-23.4-8.9-28.2-20.5c-0.2,0.6-0.5,1.1-0.7,1.7c22-11.9,41.5,10,52.9,26.2
			c1.1,1.6,3.7,0.1,2.6-1.5c-12.4-17.6-33.4-40-57-27.2c-0.5,0.3-0.9,1.1-0.7,1.7c10,24.3,41.7,20.5,59.1,35.8
			c0.5-0.8,1-1.7,1.5-2.5c-15.8-4.4-32.3-6.2-48.6-4.9c-10.1,0.8-23,4.1-24.3,16.2c-0.5,4.7,1.4,9.3,5.8,11.5
			c4.7,2.3,10.1,0.9,14.7-1c6.6-2.8,12.8-7,19-10.6c7.8-4.5,15.7-9,23.5-13.6c-0.7-0.7-1.4-1.4-2.1-2.1c-6.8,10.9-14.4,23.7-12.9,37
			c1,9.3,7.9,19.4,18.3,19.1c10.8-0.2,12.7-12.1,11.6-20.5c-2-15.3-5.9-30.6-9-45.7c-0.6,0.6-1.2,1.2-1.8,1.8
			c17.1,4.6,27.5,20.4,42.9,28.3c7.8,4,31.7,9.6,30.3-6.2c-1-11.8-6.8-26.8-20-28.7c-8.1-1.2-17.2,0.4-25.3,1.3
			c-9.5,1.1-18.9,2.7-28.2,4.7c0.5,0.8,1,1.7,1.5,2.5c12.5-10.8,23.8-22.8,33.9-35.8c5.2-6.8,10.1-13.9,14.6-21.2
			c2.9-4.7,9-12,6.6-18c-4.3-10.7-21.7-3-28.3,0.7c-10.9,6.2-19.7,16-25.1,27.3c-6.1,12.8-8,27.2-4.3,40.9c0.5,1.9,3.3,1.1,2.9-0.8
			C79.5,88,74.6,66.3,69.7,44.5c-3.3-14.7-5-39-22.8-43.9c-14.2-3.9-20.6,10.2-20.1,22c0.7,16.2,8.8,33.1,16.3,47.1
			c9.6,18,22.3,34.3,37.4,48.1C81.9,119.2,84,117.1,82.6,115.8L82.6,115.8z"/>
	</g>
</g>
<g>
	<g>
		<path class="st2" d="M78.3,112.2c-4.3,6.7,1.3,14.5,9,12.4c0.5-0.1,1-0.5,1-1c0.9-5.2-3.1-11.6-9-8.8c-4.6,2.1-4,9.6,1.4,10.1
			c6.2,0.6,8.6-9.5,4.5-13.1c-1.5-1.4-4.8-2.2-6.4-0.5c-1.6,1.6-0.6,5,0.3,6.7c3.2,5.7,10.9,6.4,14.9,1.2c3.9-5.2,2-12.3-3.9-15
			c-6.1-2.8-13,0.6-15.2,6.9c-1.8,5.1,0.2,11.9,6.7,10.6c5.2-1,7.4-6.9,3.6-10.7c-3.9-3.9-10.4-2.9-12.7,2.1
			c-6.6,14.4,18.9,17.9,17.7,4.8c-0.5-5-6.5-9.5-11.3-7.1c-5.3,2.6-4.6,10.4-0.4,13.6c12.1,9.3,23.9-16,9.2-18.7
			c-5-0.9-11.1,3.3-9.1,8.8c1.7,4.6,8.8,6.6,11.4,1.7c3.6-6.8-4.6-11.5-10.3-11c-6.9,0.6-11.2,6.5-8.3,13.2
			c2.1,4.8,10.2,12.3,15.5,7.8c4.8-4.1,3.7-13-1-16.7c-4.5-3.6-12.6-1.8-14.1,4.2c-1.6,6.4,4.7,11.7,10.7,11
			c5.6-0.7,10.7-6,8.6-11.9c-1.8-5.1-8.6-8.8-13.4-5.3c-3.9,2.8-4.1,9.1-1.1,12.7c4.3,4.9,11,1.4,13.8-3.2
			c3.3-5.4,3.8-14.1-1.4-18.5c-4.6-3.9-12.3-2.7-15.9,2c-4.2,5.4-2.1,13.7,3.1,17.6c4.7,3.5,11,2.8,13.2-3.1c2-5.3-1.1-11-6.9-11.5
			c-6.3-0.5-11.7,4.7-11.3,10.9c0.4,5.6,6.3,12.8,12.6,11.2c6.2-1.6,5.4-11.9,3.4-16.2c-2.2-4.8-9.5-7.8-13.4-2.8
			c-3.8,5,2.1,10.9,7,11.8c16.6,3,13.8-24.3,0.7-19.3c-8,3-6.4,12.5-3.1,18.4c0.7,1.2,3,0.8,2.8-0.8c-0.5-4.3-0.5-8.5-0.1-12.8
			c0.1-0.8-0.7-1.6-1.5-1.5c-10.7,1-16.4,16-5.1,21.1c8.4,3.8,17.8-8.7,9.4-14.1c-8-5.1-16.8,6.1-8.3,11.5c3.5,2.2,7.8,0.8,9.7-2.8
			c0.8-1.6,1.1-3.6,0.6-5.4c-0.6-1.9-7.8-8-5.4-9.7c1.1-0.8,0.8-2.9-0.8-2.8c-1.5,0.1-3,0.2-4.5,0.2c0.5,0.5,1,1,1.5,1.5
			c0.3,4.5,3.5,9.8,5.1,13.9c0.7,1.8,3.6,1,2.9-0.8c-1.5-3.7-2.9-7.4-4.4-11.1c-0.6-1.5-1.1-3.8-2.8-4.6c-2-0.9-4,0.4-3.8,2.5
			c0.1,0.8,0.6,1.5,1.5,1.5c1.5-0.1,3-0.2,4.5-0.2c-0.3-0.9-0.5-1.9-0.8-2.8c-2.2,1.5-2.8,3.9-1.7,6.4c0.5,1.2,1.4,2.1,2.4,3
			c0.9,0.9,2.5,1.8,3,3c0.1,1,0.2,2,0.2,3.1c-0.5,2.2-1.8,2.8-3.9,2c-2.3,0.7-3.3-0.1-3.1-2.4c-1.2-1.9-0.6-3.3,1.6-4
			c0.9-0.3,2.3-0.4,3.3-0.1c4.5,1.4,3.6,7.6-0.3,9.4c-4.6,2-9.2-2.5-9.2-7c0-4.5,4.1-7.9,8.4-8.3c-0.5-0.5-1-1-1.5-1.5
			c-0.4,4.3-0.4,8.5,0.1,12.8c0.9-0.3,1.9-0.5,2.8-0.8c-1.7-3-3.1-6.2-2-9.7c1.9-5.8,9.1-5.4,10.5,0.3c0.7,3-0.4,6.5-3.1,8.1
			c-2.9,1.8-8.6,1-10.1-2.4c-1.5-3.5,0.6-5.1,3.1-5.2c2.6,0,3.9,1.6,4.9,3.7c1.1,2.2,1.2,5,1,7.4c-0.4,4.9-5.1,5.1-8.2,2.3
			c-2.6-2.5-4.2-6.9-2.3-10.3c2.9-5.1,12.7-5.1,11.9,2.2c-0.5,4.1-4,6-7.8,4.1c-2.7-1.4-4.5-4.3-5.1-7.2c-1.2-6,3.9-11,9.8-9.8
			c7.3,1.4,7,11,4,16.1c-1.5,2.5-5,5.4-8,3.5c-1.9-1.2-2.6-4-2.1-6c1.8-8.5,15.8-0.4,9,6.6c-5.6,5.6-16.8-1.9-10-7.9
			c3.2-2.8,7.8-0.2,9.3,2.8c2,4,0.9,11.8-6.5,8.4c-2.4-1.1-5.2-4.5-5.8-7.1c-1.1-4.8,3.2-7.9,7.6-7.8c2.1,0.1,5.5,1.8,6.3,4
			c0.3,0.8-6.8,6.5-5.5-0.1c1.2-6,8.4-3,9.4,1.6c1.5,7.2-10.2,14.4-12.9,5.9c-1.3-4.1,2.6-7.8,6.4-4.9c3.4,2.6,2.5,7.1-1.4,8.5
			c-9.6,3.4-11.8-12.4-3.4-11.2c2.2,0.3,3,1.2,3.3,3.3c0.9,1.5,0.5,2.6-1.2,3.3c-1.6,1.1-2.8,0.7-3.6-1.1c-1.8-1.9-1.8-2.7-0.9-5.1
			c0.8-2.4,2.3-4.2,4.7-5.2c3.6-1.6,7.8-0.3,9.7,3.1c2.2,3.9-0.2,9.5-5,9.6c-0.5,0-1,0-1.5,0c-1.4-0.4-2.5-1.2-3.3-2.3
			c-1.4-1.9-1.1-1,1.1,2.8c-4.4,1.4-5.1,1.1-2.2-1.1c2.2-2.1,3.1-2.1,3.2,1.1c0.7,2.4-0.2,2.8-2.6,1.1c-2.5-2.6-2.9-5.1-1-7.5
			C81.9,112.1,79.4,110.6,78.3,112.2L78.3,112.2z"/>
	</g>
</g>
<g>
	<g>
		<path class="st2" d="M82.9,107.2c1.3-0.1,2.2,0.5,2.8,1.6c0.2-0.7,0.4-1.4,0.5-2.1c-1.8,0.8-4.3-0.1-5-2c-0.8-2.2,1-4.3,3-4.7
			c-0.6-0.5-1.3-1-1.9-1.4c0.2,1.4,0.4,2.8,0.5,4.3c0.2,1.9,3.2,1.9,3,0c-0.2-1.4-0.4-2.8-0.5-4.3c-0.1-1-0.9-1.7-1.9-1.4
			c-3.8,0.8-6.4,5.1-4.9,8.8c1.5,3.6,5.8,4.9,9.2,3.3c0.8-0.4,0.9-1.4,0.5-2.1c-1.1-2-3.1-3.2-5.4-3.1C81,104.3,81,107.3,82.9,107.2
			L82.9,107.2z"/>
	</g>
</g>
<g>
	<g>
		<path class="st3" d="M79.1,98.9C79,88.5,79,78.1,78.9,67.8c0-6.5-3.2-28.2,9.1-24.1c11.3,3.8,6.4,19.4,3.7,27.5
			c-3.1,9.1-7.4,17.7-12.8,25.7c-1.1,1.6,1.5,3.1,2.6,1.5c7-10.5,12.5-22.3,15.4-34.6c2-8.4,1.8-19.9-8.1-23
			c-9.5-3-12.9,5.6-13,13.4C75.7,69.1,76,84,76.1,98.9C76.1,100.8,79.1,100.8,79.1,98.9L79.1,98.9z"/>
	</g>
</g>
<g>
	<g>
		<path class="st3" d="M79.8,98.6c-6.3,1.5-11.1-4.8-15.5-8.3c-3.5-2.8-7.4-5.1-11.5-6.9c-5.5-2.4-15-5.2-19.3,1
			c-4,5.7,1.3,12.1,6.6,14.2c5,2,10.6,2.5,15.8,3.5c6.3,1.2,12.6,2.5,18.9,3.7c1.9,0.4,2.7-2.5,0.8-2.9c-8.8-1.7-17.6-3.5-26.4-5.2
			c-3.9-0.8-9-1.3-11.9-4.3c-6.6-6.8,2.2-10.3,7.6-9.4c8.3,1.4,15.3,6.7,21.5,12.1c4.1,3.6,8.5,6.8,14.2,5.4
			C82.4,101,81.6,98.1,79.8,98.6L79.8,98.6z"/>
	</g>
</g>
<g>
	<g>
		<path class="st3" d="M65.3,126c-7.8,4.1-14.4,10.3-18.9,17.9c-3,5.2-7,13.7-2.8,19.4c4.2,5.6,10.7,1.3,13.5-3.2
			c2.6-4.2,4-9.3,5.8-13.9c2.3-6.1,4.6-12.3,6.9-18.4c0.7-1.8-2.2-2.6-2.9-0.8c-2.8,7.4-5.6,14.8-8.3,22.1c-1.2,3.2-2.2,6.6-4.1,9.5
			c-1.5,2.4-2.6,3.7-5.5,3.8c-2.9,0.1-3.8-1.5-4.1-4.2c-0.6-5.8,3.2-12,6.5-16.5c4-5.5,9.3-9.9,15.4-13.1
			C68.6,127.7,67,125.1,65.3,126L65.3,126z"/>
	</g>
</g>
<g>
	<g>
		<path class="st3" d="M85,126.9c-3.8,7.5,0,16.1,6.8,20.6c4.5,3,9.9,4.3,15.2,5.2c3.2,0.6,7.5,1.6,10.4-0.4c7.2-5-4-16.4-7.8-19.9
			c-7.4-6.7-16.7-10.6-26.6-11.4c-1.9-0.2-1.9,2.9,0,3c6.7,0.5,13.2,2.6,18.9,6.2c4.9,3.1,11.2,8.2,13.3,13.8
			c3.3,8.3-4.7,6.3-8.3,5.7c-3.7-0.7-7.4-1.5-10.8-3.2c-6.6-3.2-12.3-10.7-8.5-18.1C88.5,126.7,85.9,125.2,85,126.9L85,126.9z"/>
	</g>
</g>
<g>
	<g>
		<path class="st3" d="M91.7,100.9c5.2-5.8,12-10,19.7-11.6c7-1.4,21.8,0.1,18.9,10.8c-2.1,8.1-14,5.4-20,4.5
			c-8.5-1.4-17.1-2.7-25.6-4.1c-1.9-0.3-2.7,2.6-0.8,2.9c6.9,1.1,13.8,2.2,20.7,3.3c5.2,0.8,10.6,2.1,15.9,2
			c6.7-0.1,13.9-3.6,13.1-11.5c-1-8.7-10.2-12-17.9-11.5c-10.1,0.6-19.4,5.6-26.1,13C88.3,100.2,90.4,102.4,91.7,100.9L91.7,100.9z"
			/>
	</g>
</g>
<g>
	<g>
		<path class="st3" d="M62.6,112.6c-11.2-1.4-23.9-2.2-33.4,5.1c-6.6,5.1-12.9,16.3-7,24.2c6.1,8.3,18-0.7,23.7-4.9
			c9.8-7.2,18.3-16,25.4-25.8c1.1-1.6-1.5-3.1-2.6-1.5c-5.2,7.2-11.2,13.9-18,19.7c-5.3,4.6-16.9,15.7-24.2,11.6
			c-5.4-3-3.7-10.6-0.9-15c2.2-3.5,5.4-6.4,9.1-8.2c8.5-4.2,18.7-3.3,27.8-2.1C64.5,115.9,64.5,112.9,62.6,112.6L62.6,112.6z"/>
	</g>
</g>
<g>
	<g>
		<path class="st4" d="M75.5,109.1c5.3-1.8,13.9,0.9,13.7,7.7c-0.1,3.5-3.2,6.9-6.6,7.5c-4,0.8-6.5-2.7-8.4-5.6
			c-2.5-3.8-5.6-10-0.7-13.4c2.8-1.9,7.1-1.2,9.3,1.2c2.8,3,3.1,8.5,0.9,11.9c-2.4,3.9-7.7,4.3-10.7,0.7c-5.7-7,5-16.5,12.1-12.1
			c7.2,4.4-3.8,12.7-7.7,6.7c-2.3-3.5,0.2-8,4.5-7.3c7.6,1.3,2.7,12.4-3.7,9.2c-4.3-2.2-4.3-8.5-0.2-10.7c2.1-1.1,5.3-1.1,6.2,1.8
			c0.4,1,0.3,1.9-0.3,2.8c-0.6,2.9-2.7,2.5-6.2-1c-1-3.4-0.2-4.9,2.3-4.4c1.5-0.6,2.3-0.1,2.2,1.5c0.1,2.6,0.2,5.2,0.3,7.8
			c-0.8,1.3-1.8,2.3-3.2,2.9c0.6,0.1,1.2,0.2,1.8,0.2c-0.7-1.4-1.5-2.8-2.2-4.2c-0.2-1.9-3.2-1.9-3,0c0.3,2.7,1.1,4.4,3.1,6.3
			c0.5,0.5,1.2,0.6,1.8,0.2c4.5-2.7,8.3-11,1.2-13.5c-4.4-1.5-9.1,4.3-5.4,7.8c1.9,1.7,4.7,1.3,6.5-0.2c2.5-2,2.6-5.2,1.9-8.1
			c-0.5-2.1-1.5-5.7-4.1-6.1c-2.9-0.5-5.3,3.4-6,5.6c-1.7,5.1,2.7,12.1,8.7,9.8c4.6-1.8,4.8-8.6,1.2-11.5c-4.8-3.9-12,0.4-12.9,5.8
			c-1,5.7,4.1,12,10.1,10.7c5.9-1.2,9.6-8.9,4.8-13.4c-3.8-3.6-10.8-3-12.9,2.1c-1.9,4.6,1.2,10.5,6.2,11.2
			c5.4,0.8,13.1-5.4,10.3-11.3c-2.8-5.9-13-5.3-17.3-2c-4.9,3.6-6.4,11.4-2,16c4.2,4.3,11.3,4,14.7-1c3.7-5.5,2.8-14.5-3.2-18
			c-5.8-3.4-14-0.2-14.7,6.8c-0.7,6.7,5.9,18,13.3,18c6.6,0,12.3-6.9,10.5-13.3c-2-7.1-10.6-10.1-17.1-7.9
			C72.9,106.8,73.6,109.7,75.5,109.1L75.5,109.1z"/>
	</g>
</g>
<g>
	<g>
		<path class="st5" d="M83.6,113.6c1.9,3.2,4.8-4.5,4.7-0.1c-0.1,2.4-1.7,3.5-3.7,4.1c-2.3,0.7-5.2,0.3-7-1.4
			c-1.5-1.5-2.8-7.2,0.4-4.8c1.7,1.3,1.6,1.2,0.9,3.7c-0.8,2.7-3.2,6.7-6.5,5.4c-5.5-2.3-0.6-10.5,4.9-7c2.1,1.3,3.7,4.2,2.7,6.8
			c-1.6,4.3-4.9,3-6.4,0.5c-0.7-1.3-0.2-4.2,0.2-5.6c0.8-2.7,3.2-5.2,6.1-5.3c3.7-0.1,6.2,2.8,5,6.6c-0.7,2.2-2.6,4.1-4.6,5.4
			c-3.5,2.2-6.4-0.3-7-3.9c-0.5-3.4,0.6-11.7,6-8.5c5.1,3,1.8,10-3.8,8c-5.2-1.8-4.4-8.1,0-10.4c5.7-2.9,11.1,3.4,10,8.9
			c-1.2,6.3-11.1,8.7-12.3,1c-1.1-6.5,6.7-10.7,11.9-7.3c8.6,5.7,2.6,17.4-6.5,17.3c-8.5-0.1-10.5-10.7-5.8-16.3
			c1.7-2.1,4.4-3.5,7.1-2.7c2.8,0.9,4.5,4.4,3,7.2c-1.5,2.7-5.4,3-7.8,1.5c-2.9-1.8-3.1-5.7-1.4-8.5c3.8-6,12.9-2,13,4.4
			c0.1,6.6-9.4,9.2-11,2.3c-0.2,0.6-0.5,1.1-0.7,1.7c2.4-1.8,5.2-1.5,7.1,0.7c1.2,1.5,3.4-0.7,2.1-2.1c-2.7-3.2-7.4-3.8-10.7-1.2
			c-0.6,0.4-0.9,1-0.7,1.7c2.2,9.5,15.5,7.6,16.8-1.6c1.2-9.1-10.5-16-17.2-9c-6.6,6.9,0.2,18.7,9.5,14.8c8.5-3.6,4.1-16.7-4.8-15.1
			c-8.6,1.5-12.2,12.8-8,19.9c4.7,7.9,16.2,6.1,21.1-0.6c5.7-7.9-1.1-20.5-11.1-18.7c-9.2,1.6-12.9,16.3-2.6,19.2
			c10.2,3,15.4-10.9,9.5-17.8c-6-7-19.6-1.7-16.9,8c2,7.2,15.1,8.7,15.9,0c0.8-8.3-10.5-12.4-14-4.2c-1.6,3.9-1.2,10.4,1.4,13.8
			c3,4,8.4,1.3,11.4-1.2c3.5-2.9,6.2-8,3.6-12.3c-2-3.6-6.8-4.6-10.4-3.2c-8.3,3.1-9.2,22,1.5,18.3c9.4-3.2,3.3-17.4-5.5-16.2
			c-8,1.1-8,14.5,0.4,14.4c7.8-0.2,13-17.3,3.9-16.5c-3.5,0.3-5.7,3.7-4.8,7c1.3,4.7,6.8,7,11.2,6.5c4.1-0.5,7.6-3.5,7.4-7.9
			c-0.1-3.4-2.9-6.8-6.6-6c-3.6,0.8-5.6,4.9-3.7,8.1C82,116.7,84.6,115.2,83.6,113.6L83.6,113.6z"/>
	</g>
</g>
<g>
	<g>
		<path class="st6" d="M101,283c-19.3-12.8-16.8-41.4,4-51c1.7-0.8,0.2-3.4-1.5-2.6c-23,10.7-25,42.3-4,56.2
			C101.1,286.7,102.6,284.1,101,283L101,283z"/>
	</g>
</g>
<g>
	<g>
		<path class="st6" d="M98.5,280.5c5.1-15.7,6.2-32.2,3.3-48.5c-0.3-1.9-3.2-1.1-2.9,0.8c2.8,15.8,1.6,31.7-3.3,46.9
			C95,281.6,97.9,282.4,98.5,280.5L98.5,280.5z"/>
	</g>
</g>
<g>
	<g>
		<path class="st7" d="M93.5,272.4c-5-12.8-4.6-26.7,1.3-39.1c0.8-1.7-1.8-3.3-2.6-1.5c-6.2,13.1-6.9,27.9-1.6,41.4
			C91.3,274.9,94.2,274.2,93.5,272.4L93.5,272.4z"/>
	</g>
</g>
<g>
	<g>
		<path class="st7" d="M98.8,276.5c9.1-16,6-37-7.5-49.5c-1.4-1.3-3.5,0.8-2.1,2.1c12.5,11.6,15.6,31,7.1,45.8
			C95.2,276.6,97.8,278.1,98.8,276.5L98.8,276.5z"/>
	</g>
</g>
<g>
	<g>
		<path class="st7" d="M56.7,223.1c-11.6-6.5-24.6-8.7-37.7-6.5c-1.9,0.3-1.1,3.2,0.8,2.9c12.3-2.1,24.5,0.1,35.4,6.2
			C56.9,226.6,58.4,224,56.7,223.1L56.7,223.1z"/>
	</g>
</g>
<g>
	<g>
		<path class="st7" d="M53.9,223.6c-7.7,1.2-15.8,2.3-23.6,0.7c-9.2-1.9-14.6-7.8-18.6-16c-0.4,0.8-0.9,1.5-1.3,2.3
			c15.9-0.9,31.2,6.9,39.8,20.4c1,1.6,3.6,0.1,2.6-1.5c-9.1-14.4-25.4-22.8-42.4-21.9c-1.2,0.1-1.8,1.2-1.3,2.3
			c4.1,8.3,9.8,14.7,19,17.1c8.7,2.2,17.8,1,26.6-0.4C56.6,226.2,55.8,223.3,53.9,223.6L53.9,223.6z"/>
	</g>
</g>
<g>
	<g>
		<path class="st8" d="M90.3,274.5c-1.2-17.5-1.6-35.1-1.2-52.7c0-1.9-3-1.9-3,0c-0.4,17.6,0,35.2,1.2,52.7
			C87.4,276.4,90.4,276.4,90.3,274.5L90.3,274.5z"/>
	</g>
</g>
<g>
	<g>
		<path class="st8" d="M100.5,280.8c4.8-12,5.7-25.2,2.4-37.8c-2.6-9.7-7.8-20.1-18.1-23.1c-1.9-0.6-2.6,2.3-0.8,2.9
			c10.3,3.1,14.9,14.7,16.8,24.4c2.2,11.1,1,22.4-3.2,32.8C96.9,281.8,99.8,282.6,100.5,280.8L100.5,280.8z"/>
	</g>
</g>
<g>
	<g>
		<path class="st8" d="M55.1,216.7c-9.4-19.5-33.4-29.5-53.8-22.4c-1.8,0.6-1,3.5,0.8,2.9c19.3-6.7,41.6,2.7,50.4,21
			C53.4,220,55.9,218.5,55.1,216.7L55.1,216.7z"/>
	</g>
</g>
<g>
	<g>
		<path class="st8" d="M51.5,229.8c-10.9,2.2-22.2-1.3-30.4-8.8c-9.6-8.8-11.1-20.3-11.1-32.7c0-1.9-3-1.9-3,0
			c0,13.7,2,26.3,13,35.7c8.9,7.6,20.7,11,32.3,8.7C54.2,232.3,53.4,229.4,51.5,229.8L51.5,229.8z"/>
	</g>
</g>
<g>
	<g>
		<path class="st8" d="M88.5,273.2c-5.3-15.7-5.8-32.3-1.2-48.2c0.5-1.9-2.4-2.7-2.9-0.8c-4.7,16.4-4.3,33.6,1.2,49.8
			C86.2,275.8,89.1,275.1,88.5,273.2L88.5,273.2z"/>
	</g>
</g>
<g>
	<g>
		<path class="st8" d="M99.4,282.8c16.5-3,16.8-23.2,14-36.1c-3.1-13.9-13.8-27.3-29.4-24.7c-1.9,0.3-1.1,3.2,0.8,2.9
			c14-2.3,23,10.6,25.7,22.6c2.5,11.3,2.8,29.7-11.9,32.4C96.7,280.3,97.5,283.2,99.4,282.8L99.4,282.8z"/>
	</g>
</g>
<g>
	<g>
		<path class="st8" d="M50.9,228.5c-11.5-1.6-25.8,4-35.1-5.2c-9.4-9.3-12.9-25.3-12.8-38c0-1.9-3-1.9-3,0
			c-0.1,13.5,3.6,28.6,12.6,39c9.9,11.4,24.5,5.3,37.4,7.1C52,231.7,52.8,228.8,50.9,228.5L50.9,228.5z"/>
	</g>
</g>
<g>
	<g>
		<path class="st8" d="M2,190.1c11.3-1.3,24.5-2.6,32.9,6.7c3.6,4,6,9,8.3,13.8c2.9,5.9,5.8,11.8,8.6,17.6c0.8,1.7,3.4,0.2,2.6-1.5
			c-3.2-6.6-6.4-13.3-9.7-19.9c-2.6-5.2-5.4-10.4-9.9-14.3c-9.1-7.8-21.8-6.7-32.8-5.4C0.1,187.3,0.1,190.3,2,190.1L2,190.1z"/>
	</g>
</g>
</svg>
