<?xml version="1.0" encoding="utf-8"?>
<!-- Generator: Adobe Illustrator 22.0.1, SVG Export Plug-In . SVG Version: 6.00 Build 0)  -->
<svg version="1.1" id="Layer_1" xmlns="http://www.w3.org/2000/svg" xmlns:xlink="http://www.w3.org/1999/xlink" x="0px" y="0px"
	 viewBox="0 0 177.6 246.6" style="enable-background:new 0 0 177.6 246.6;" xml:space="preserve">
<style type="text/css">
	.st0{fill:#002E0E;}
	.st1{fill:#4300A2;}
	.st2{fill:#5C3F00;}
	.st3{fill:#8B6600;}
	.st4{fill:#5C5800;}
	.st5{fill:#5C5300;}
	.st6{fill:#D08800;}
	.st7{fill:#002E18;}
	.st8{fill:#000273;}
	.st9{fill:#00731E;}
</style>
<g>
	<g>
		<path class="st0" d="M123,245.5c3.3-10.4,2.3-21.8-3.2-31.2c-6.3-10.7-17-17.8-23.2-28.7c-14.4-25.4-9.5-55.8-4.9-83.1
			c0.3-1.9-2.6-2.7-2.9-0.8c-4.3,25.6-8.7,52.8,1.4,77.6c4.4,10.9,11.7,18.7,19.6,27.1c10,10.7,14.7,23.9,10.2,38.3
			C119.5,246.6,122.4,247.4,123,245.5L123,245.5z"/>
	</g>
</g>
<g>
	<g>
		<path class="st1" d="M92.1,100.3c-5.1-17-19.5-28.1-34.2-36.8c-17.1-10.2-35.9-20.6-56.3-21c-1.1,0-1.9,1.3-1.3,2.3
			C19.1,73.3,51.4,87.9,83,97.9c1.8,0.6,2.6-2.3,0.8-2.9c-30.8-9.8-62.5-24-81-51.8c-0.4,0.8-0.9,1.5-1.3,2.3
			C20.9,45.8,38.7,55.7,55,65.3c14.4,8.4,29.1,19.1,34.1,35.8C89.7,102.9,92.6,102.1,92.1,100.3L92.1,100.3z"/>
	</g>
</g>
<g>
	<g>
		<path class="st1" d="M91.5,96.8C91.6,64,92.4,27,117.6,2.6c-0.9-0.4-1.7-0.7-2.6-1.1c3.8,33.4-5.5,67.2-25.9,93.8
			c-1.2,1.5,1.4,3,2.6,1.5c20.7-27,30.2-61.5,26.3-95.3c-0.1-1.2-1.6-2-2.6-1.1c-25.8,25-27,62.8-27,96.4
			C88.5,98.8,91.5,98.8,91.5,96.8L91.5,96.8z"/>
	</g>
</g>
<g>
	<g>
		<path class="st1" d="M91.7,98.4c11.5-11.2,25.1-19.8,39.4-26.9c7.4-3.7,15-7,22.7-10.1c3.6-1.5,7.3-2.9,11-4.3
			c2.5-1,11-5.6,9.7,0.2c-3.6,16.3-19.8,25.7-34.6,30.2c-16.6,5.1-35.1,9-52.5,9.2c-1.9,0-1.9,3,0,3c16.1-0.2,32.6-3.8,48.1-7.9
			c13.2-3.4,26.4-9.1,35.1-20.1c2.7-3.4,13.5-24.3,1.2-20.5c-13.8,4.3-27.7,10.6-40.7,17c-15.1,7.4-29.4,16.4-41.5,28.1
			C88.1,97.6,90.3,99.7,91.7,98.4L91.7,98.4z"/>
	</g>
</g>
<g>
	<g>
		<path class="st1" d="M90.4,90.4C82.8,72,76,53.4,69.8,34.5c-0.5,0.6-1,1.3-1.4,1.9c10.4-0.5,12.3,16.2,13.6,23.6
			c1.9,10.8,2.4,21.8,1.9,32.8c-0.1,1.9,2.9,1.9,3,0c0.7-13.7-0.4-27.5-3.4-40.9c-1.7-7.7-5.2-18.9-15-18.5c-0.9,0-1.8,0.9-1.4,1.9
			c6.2,18.9,13.1,37.5,20.6,55.9C88.2,92.9,91.1,92.2,90.4,90.4L90.4,90.4z"/>
	</g>
</g>
<g>
	<g>
		<path class="st1" d="M94.2,94.1c-1-9.3,5.5-16.4,11.8-22.4c6.9-6.5,14.2-12.5,21.9-18.1c-0.8-0.4-1.5-0.9-2.3-1.3
			c0.1,9.7-7,16.7-13.9,22.5c-7.7,6.5-15.6,12.6-23.4,18.9c-1.5,1.2,0.6,3.3,2.1,2.1c9-7.2,18.5-14.1,26.9-22
			c6.2-5.8,11.4-12.7,11.2-21.5c0-1-1.3-2-2.3-1.3c-8.7,6.4-17.2,13.2-24.8,20.9c-6,6-11.3,13.3-10.3,22.2
			C91.4,96,94.4,96.1,94.2,94.1L94.2,94.1z"/>
	</g>
</g>
<g>
	<g>
		<path class="st1" d="M88.2,92.7C81.1,81.7,74,70.6,66.9,59.5c-0.4,0.8-0.9,1.5-1.3,2.3C83.4,63,84.8,84.6,84.8,98.1
			c0,1.9,3,1.9,3,0c0.1-15.4-2.4-37.9-22.2-39.3c-1.1-0.1-1.9,1.3-1.3,2.3c7.1,11.1,14.2,22.1,21.3,33.2
			C86.7,95.9,89.3,94.4,88.2,92.7L88.2,92.7z"/>
	</g>
</g>
<g>
	<g>
		<path class="st2" d="M88.1,87.6C92,70,88.9,51.8,79.3,36.5c-1-1.6-3.6-0.1-2.6,1.5c9.1,14.6,12.1,32,8.5,48.8
			C84.8,88.7,87.7,89.5,88.1,87.6L88.1,87.6z"/>
	</g>
</g>
<g>
	<g>
		<path class="st2" d="M94.1,91.4c-0.5-9.5,6.3-16.7,12.9-22.7c6.8-6.2,14.4-11.6,22.4-16.1c1.7-1,0.2-3.5-1.5-2.6
			c-9.3,5.2-17.9,11.5-25.6,19C96.2,75,90.7,82.4,91.1,91.4C91.2,93.4,94.2,93.4,94.1,91.4L94.1,91.4z"/>
	</g>
</g>
<g>
	<g>
		<path class="st2" d="M89.4,90.3c4.2-20.7,0.4-42.2-10.8-60.1c-1-1.6-3.6-0.1-2.6,1.5C86.8,49,90.6,69.6,86.5,89.5
			C86.2,91.4,89,92.2,89.4,90.3L89.4,90.3z"/>
	</g>
</g>
<g>
	<g>
		<path class="st2" d="M94.5,92.7c-1.4-14.9-0.4-29.8,3.3-44.3c0.5-1.9-2.4-2.7-2.9-0.8c-3.7,14.8-4.9,29.9-3.4,45.1
			C91.7,94.6,94.7,94.7,94.5,92.7L94.5,92.7z"/>
	</g>
</g>
<g>
	<g>
		<path class="st3" d="M73.7,26.6c-0.1,2.3,2.1,4,4.3,3.9c1.1,0,2.2-0.5,2.8-1.5c0.8-1.2,0-2.5-0.9-3.3c-1.7-1.6-4.4-2-6.4-1
			c-2.8,1.4-3.2,5.2-2.2,7.8c0.2,0.6,0.8,1.2,1.4,1.1c2.6-0.3,7.3-2.4,5.4-5.8c-1.1-2.1-5.3-2.9-5.8,0.1c-0.3,1.9,2.5,2.7,2.9,0.8
			c0.1-0.5-0.2,0-0.1,0.2c0.2,0.4,0.4,0.1,0.4,0.3c0,1-2.1,1.3-2.7,1.4c0.5,0.4,1,0.7,1.4,1.1c-0.5-1.5-0.8-4.1,1.2-4.5
			c1.3-0.3,2.5,0.4,3,1.6c0-0.5,0-1,0-1.5c-0.4,0.6-1.7,0-1.7-0.7C76.8,24.6,73.8,24.6,73.7,26.6L73.7,26.6z"/>
	</g>
</g>
<g>
	<g>
		<path class="st3" d="M97.2,48.3c0.3,0.1,0.5,0.3,0.6,0.7c0,0.1,0.1,0.2,0.1,0.2c0.2,0.2-0.4,0.1,0.1,0c0.4-0.1,0.6-0.1,0.9,0.1
			c0.2,0.1,0-0.1,0,0.1c0-0.2-0.2-0.3-0.1-0.1c0-0.2,0-0.2,0,0c-0.3,0.6-0.7,0.8-1.1,0.7c0-1,0-1.9,0-2.9c-1.3,0.4-2.6,0.8-3.9,1.2
			c-1.8,0.6-1.1,3.5,0.8,2.9c1.3-0.4,2.6-0.8,3.9-1.2c1.4-0.4,1.5-2.5,0-2.9c-3.2-0.8-3.4,4.2-0.7,4.9c1.5,0.4,2.9-1,3-2.4
			c0.2-1.5-0.7-3.1-2.1-3.8C97,44.8,95.5,47.4,97.2,48.3L97.2,48.3z"/>
	</g>
</g>
<g>
	<g>
		<path class="st3" d="M84.8,62.1c0.2-0.8,0.8-1.4,1.6-1.7c-0.6-0.5-1.3-1-1.9-1.4c0,0.8-0.8,1.4-1.6,1.2c0.3,0.2,0.6,0.5,0.9,0.7
			c-0.5-0.9-0.6-1.8-0.3-2.8c0.6-1.8-2.3-2.6-2.9-0.8c-0.4,1.2-0.4,2.4-0.1,3.6c0.2,0.6,0.5,1.4,0.9,1.8c0.4,0.4,1.2,0.5,1.8,0.5
			c2.3,0,4.3-2,4.3-4.3c0-0.9-1-1.8-1.9-1.4c-1.8,0.7-3.1,2-3.6,3.8C81.3,63.1,84.2,63.9,84.8,62.1L84.8,62.1z"/>
	</g>
</g>
<g>
	<g>
		<path class="st3" d="M126.3,51.3C126.3,51.1,126.3,51.1,126.3,51.3C126.4,51.1,126.4,51.1,126.3,51.3
			C126.4,51.2,126.4,51.2,126.3,51.3C126.4,51.2,126.4,51.2,126.3,51.3c-0.1,0.1-0.3,0.2-0.5,0.3c-0.1,0-0.2,0.1-0.3,0.1
			c0.2,0,0.2,0,0,0c-0.1,0-0.5,0-0.1,0c-0.2-0.1-0.2,0,0,0c-0.1-0.1-0.2-0.1,0,0c-0.1-0.1-0.1-0.1,0,0c-0.1-0.1-0.1-0.2-0.1-0.3
			c-0.3-0.7-1.4-0.9-2.1-0.5c-0.8,0.4-0.9,1.3-0.5,2.1c0.7,1.6,2.7,2,4.2,1.5c1.7-0.6,2.8-2.1,2.4-3.9
			C128.8,48.6,125.9,49.4,126.3,51.3L126.3,51.3z"/>
	</g>
</g>
<g>
	<g>
		<path class="st3" d="M127.9,53.2c-0.4-1.3-0.8-2.5-1.2-3.8c-0.9,0.4-1.8,0.8-2.7,1.2c0.1,0.3,0.2,0.5,0.1,0.9c0,0-0.1,0.1-0.1,0.2
			c0-0.2,0.1,0.1,0,0.1c0,0,0.1-0.1,0.2-0.1c0.2,0.1,0.2,0,0.4,0.1c0.2,0.1,0.3,0.2,0.3,0.3c0.1,0.2,0.1,0.3,0.1,0.2
			c-0.1-0.1,0.1,0.3,0,0.1c0-0.1,0,0.1,0,0.1c0,0,0.1-0.3,0-0.1c0,0.2,0,0,0-0.1c0.1-0.1-0.1,0.2-0.2,0.2c-0.2,0.1-1.4,0-1.6-0.2
			c1.1,1.6,3.7,0.1,2.6-1.5c-0.8-1.3-2.6-1.4-3.4,0c-0.6,1-0.7,2.5,0.2,3.3c1.2,1.2,3.1,0.5,3.9-0.8c0.8-1.3,0.7-2.9,0-4.2
			c-0.8-1.5-3.2-0.5-2.7,1.2c0.4,1.3,0.8,2.5,1.2,3.8C125.6,55.8,128.5,55.1,127.9,53.2L127.9,53.2z"/>
	</g>
</g>
<g>
	<g>
		<path class="st3" d="M126.7,52.2c0-0.5,0-0.9,0-1.4c0-0.8-0.7-1.5-1.5-1.5c-0.8,0-1.5,0.7-1.5,1.5c0,0.5,0,0.9,0,1.4
			c0,0.8,0.7,1.5,1.5,1.5C126,53.7,126.7,53.1,126.7,52.2L126.7,52.2z"/>
	</g>
</g>
<g>
	<g>
		<path class="st4" d="M94,90.1c0.1-11.7,4.3-22.6,12.1-31.2c1.3-1.4-0.8-3.6-2.1-2.1C95.7,66,91.1,77.6,91,90.1
			C91,92,94,92,94,90.1L94,90.1z"/>
	</g>
</g>
<g>
	<g>
		<path class="st5" d="M103.6,56.9c-0.2,0.1,0.1,0,0.2,0c0.1,0,0.1,0,0,0c0.1,0,0.1,0,0.2,0c-0.3-0.1,0.3,0.1,0,0
			c0.1,0,0.2,0.2,0.1,0c-0.3-0.2,0.2,0.2,0,0c0,0.1,0.1,0.3,0,0.1c0,0.2,0,0.3,0,0.1c0-0.1,0-0.1,0,0.1c0,0.2-0.1,0.3-0.3,0.4
			c-0.2,0.1,0.2-0.1-0.2,0.1c0.3-0.1-0.2,0-0.1,0c0.2,0-0.4,0-0.1,0c0.3,0-0.2-0.1,0,0c0.1,0.1,0.2,0.2,0,0c0.2,0.2-0.1-0.2,0,0
			c0.1,0.2-0.1-0.3,0-0.1c0-0.1,0.1-0.6,0-0.3c-0.2,0.8,0.2,1.7,1,1.8c0.8,0.2,1.6-0.2,1.8-1c0.6-2.5-2.8-4.5-4.6-2.6
			c-1.9,2.1,1,5.6,3.4,4.1c0.7-0.4,1-1.3,0.5-2.1C105.3,56.8,104.3,56.5,103.6,56.9L103.6,56.9z"/>
	</g>
</g>
<g>
	<g>
		<path class="st6" d="M104.9,59.1c1.9,0,1.9-3,0-3C103,56.1,103,59.1,104.9,59.1L104.9,59.1z"/>
	</g>
</g>
<g>
	<g>
		<path class="st6" d="M125.2,53.7c1.9,0,1.9-3,0-3C123.3,50.7,123.3,53.7,125.2,53.7L125.2,53.7z"/>
	</g>
</g>
<g>
	<g>
		<path class="st6" d="M75.2,29.4c1.9,0,1.9-3,0-3C73.3,26.4,73.3,29.4,75.2,29.4L75.2,29.4z"/>
	</g>
</g>
<g>
	<g>
		<path class="st6" d="M98.2,49.7c1.9,0,1.9-3,0-3C96.2,46.7,96.2,49.7,98.2,49.7L98.2,49.7z"/>
	</g>
</g>
<g>
	<g>
		<path class="st6" d="M86,60.5c1.9,0,1.9-3,0-3C84.1,57.5,84.1,60.5,86,60.5L86,60.5z"/>
	</g>
</g>
<g>
	<g>
		<path class="st7" d="M108.4,197.6c-3.7-19.4,2-39.7,15.2-54.4c-0.8-0.1-1.6-0.2-2.4-0.3c14,19.5-7.6,41.5-15,58.9
			c-0.7,1.8,2.2,2.6,2.9,0.8c7.7-18.3,29.4-40.6,14.6-61.3c-0.5-0.7-1.7-1.1-2.4-0.3c-14,15.6-19.8,36.8-15.9,57.3
			C105.9,200.3,108.8,199.5,108.4,197.6L108.4,197.6z"/>
	</g>
</g>
<g>
	<g>
		<path class="st7" d="M87.8,171.9c-5.9-7.6-13.5-13.5-22.3-17.2c-2.8-1.2-7.3-3.5-10.4-2.4c-3.1,1.1-2.9,4.8-2.7,7.5
			c1.4,18.5,21,28.7,37.4,21.3c1.8-0.8,0.2-3.4-1.5-2.6c-14.4,6.5-31.5-2.6-32.9-18.7c-0.4-4.8,2.8-4.7,6.4-3.4
			c3.1,1.1,6.1,2.5,9,4.2c5.9,3.5,10.8,8,15,13.4C86.8,175.6,88.9,173.4,87.8,171.9L87.8,171.9z"/>
	</g>
</g>
<g>
	<g>
		<path class="st8" d="M87.6,97.5c-17.8-3.4-35.9-2.5-53.3,2.8c-0.7,0.2-1.4,1.1-1,1.8c3.8,9.4,14.4,12.4,23.7,11.6
			c12.2-1,23.4-6.8,31.6-15.8c1.3-1.4-0.8-3.5-2.1-2.1c-6.7,7.3-15.4,12.5-25.2,14.3c-8.8,1.6-21.2,0.8-25.1-8.8
			c-0.3,0.6-0.7,1.2-1,1.8c16.8-5.1,34.4-6.1,51.7-2.8C88.7,100.8,89.5,97.9,87.6,97.5L87.6,97.5z"/>
	</g>
</g>
<g>
	<g>
		<path class="st8" d="M92.8,98.1c5.8,0.1,11.4,0.7,17,2.2c2.8,0.7,5.5,1.7,8.2,2.7c2.4,1,7.2,2.5,2.3,4.3
			c-4.5,1.7-11.7,0.7-16.2-0.2c-2.7-0.5-5.3-1.5-7.7-2.9c-1.5-1-2.8-2.1-3.9-3.5c-0.3-0.4-3.7-4.9-3.8-4.2c0.4-0.5,0.7-1,1.1-1.4
			c-0.1,0-0.3,0-0.4,0.1c-1.9,0.4-1.1,3.2,0.8,2.9c0.1,0,0.3,0,0.4-0.1c0.7-0.1,1.1-0.8,1.1-1.4c0.1-2.8-3.2-3.5-4.2-0.9
			c-1.7,4.3,5,9.8,8,11.5c6.3,3.7,14.5,4.1,21.6,3.6c4.2-0.3,8.6-1.4,9.2-6.2c0.1-0.5-0.3-1.1-0.7-1.3c-10.3-5.3-21.3-8.1-32.9-8.3
			C90.8,95.1,90.8,98.1,92.8,98.1L92.8,98.1z"/>
	</g>
</g>
<g>
	<g>
		<path class="st9" d="M114.5,171.1c0-0.6,0.1-1.1,0.1-1.7c0.1-1.9-2.9-1.9-3,0c-0.2,2.7-0.7,5.2-1.4,7.8c1,0.1,2,0.3,2.9,0.4
			c0-3.7,0-7.5,0-11.2c-0.4,0.5-0.7,1-1.1,1.4c2.7-0.9,4.1-2.8,3.9-5.7c-0.9,0.4-1.7,0.7-2.6,1.1c0.2,0.6,0.5,1.3,0.7,1.9
			c-0.1,1.5,2.1,2,2.8,0.8c2.1-3.5,3.5-7,4.5-10.9c-1-0.1-2-0.3-2.9-0.4c-0.4,9.7-2.8,18.9-7,27.7c0.9,0,1.7,0,2.6,0
			c-0.3-0.9-0.6-1.7-0.8-2.6c-1,0-2,0-3,0c0.3,1.4,0,2.6-0.9,3.8c0.9,0.3,1.9,0.5,2.8,0.8c0-1.5-0.1-3-0.1-4.5
			c0-1.8-2.3-1.9-2.9-0.4c-1.3,3.3-2.6,6.5-3.8,9.8c1,0.3,1.9,0.5,2.9,0.8c2.9-10.8,6.9-21.2,12-31.1c-0.9-0.3-1.9-0.5-2.8-0.8
			c-0.1,3.2-0.2,6.3-0.3,9.5c1,0,2,0,3,0c-0.1-4.4-0.2-8.9-0.3-13.3c0-1.8-2.3-1.9-2.9-0.4c-1.3,3.1-2.5,6.2-3.8,9.3
			c0.9-0.1,1.8-0.2,2.7-0.4c-2-2.7-1.4-6.6,2.1-7.9c-0.6-0.3-1.2-0.7-1.8-1c4.7,11.6,1.2,24.8-8.6,32.5c0.8,0.6,1.6,1.2,2.4,1.8
			c7.5-11.1,12.1-23.5,13.7-36.8c-1,0.1-2,0.3-2.9,0.4c2.4,12.9-2.8,26.2-13.5,33.9c0.7,0.7,1.4,1.4,2.1,2.1
			c7.2-9.8,11.2-21.2,11.6-33.4c0.1-1.6-2-1.9-2.8-0.8c-6.7,10.2-10.1,21.8-10.2,33.9c0,1.9,3,1.9,3,0c0-11.7,3.4-22.7,9.8-32.4
			c-0.9-0.3-1.9-0.5-2.8-0.8c-0.4,11.6-4.3,22.5-11.2,31.9c-0.9,1.2,0.9,2.9,2.1,2.1c11.8-8.5,17.6-23,14.9-37.3
			c-0.3-1.8-2.8-1.1-2.9,0.4c-1.6,12.7-6.1,24.7-13.3,35.3c-1,1.5,1.1,2.8,2.4,1.8c10.5-8.4,14.4-23,9.3-35.5c-0.3-0.7-1-1.4-1.8-1
			c-5,1.9-7.2,7.9-3.9,12.3c0.8,1.1,2.2,0.9,2.7-0.4c1.3-3.1,2.5-6.2,3.8-9.3c-1-0.1-2-0.3-2.9-0.4c0.1,4.4,0.2,8.9,0.3,13.3
			c0,1.9,2.9,1.9,3,0c0.1-3.2,0.2-6.3,0.3-9.5c0-1.5-2.1-2.1-2.8-0.8c-5.3,10.1-9.4,20.7-12.3,31.8c-0.5,1.9,2.2,2.6,2.9,0.8
			c1.3-3.3,2.6-6.5,3.8-9.8c-1-0.1-2-0.3-2.9-0.4c0,1.5,0.1,3,0.1,4.5c0,1.5,2,2,2.8,0.8c1.2-1.7,1.6-3.2,1.3-5.4
			c-0.2-1.9-3.1-2-3,0c0.1,1.6,0.4,2.8,1.3,4.1c0.6,0.9,2.1,1.1,2.6,0c4.5-9.2,7-19,7.5-29.2c0.1-1.7-2.5-2-2.9-0.4
			c-0.9,3.6-2.3,7-4.2,10.2c0.9,0.3,1.9,0.5,2.8,0.8c0.1-1.8-0.3-2.8-1.6-4c-0.9-0.8-2.7-0.3-2.6,1.1c-0.6,0.9-1.1,1.8-1.7,2.8
			c-0.6,0.2-1.1,0.8-1.1,1.4c0,3.7,0,7.5,0,11.2c0,1.7,2.5,2,2.9,0.4c0.9-2.8,1.3-5.6,1.5-8.6c-1,0-2,0-3,0c0,0.6-0.1,1.1-0.1,1.7
			C111.4,173.1,114.4,173.1,114.5,171.1L114.5,171.1z"/>
	</g>
</g>
<g>
	<g>
		<path class="st9" d="M65,164.4c0.5,0.7,0.9,1.5,1.4,2.2c0.5-0.6,1-1.3,1.4-1.9c-1.9,0.4-3.5-0.3-4.6-2.2c-0.9-1.4-3.2-0.5-2.7,1.2
			c1.1,4,2.9,7.5,5.5,10.8c0.4,0.5,1.3,0.5,1.8,0.2c1.4-0.7,2.9-1.5,4.3-2.2c0.5-0.3,0.9-1.1,0.7-1.7c-1.1-2.8-2.4-5-4.5-7.2
			c-1-1-3.1,0-2.5,1.5c0.5,1.3,1,2.6,1.5,3.8c0.8-0.5,1.7-1,2.5-1.5c-1.6-1.6-4.1-3.5-6.3-1.7c-1.6,1.3-1.4,3.3-0.2,4.6
			c1.1,1.2,2.8-0.1,2.5-1.5c-0.8-3.9-1.9-7.5-3.4-11.2c-0.7-1.7-3.6-1.1-2.9,0.8c2,5.4,5,9.9,9.5,13.5c1.5,1.2,3.5-0.7,2.1-2.1
			c-0.4-0.9-0.7-1.7-1.1-2.6c-0.9,0.4-1.7,0.7-2.6,1.1c1.7,2,3.5,4,5.2,6c0.5,0.6,1.6,0.6,2.1,0c1.7-2,1.9-3.8,0.7-6.2
			c-0.7,0.7-1.4,1.4-2.1,2.1c2.4,1.6,3.8,3.7,4.2,6.6c0.6-0.5,1.3-1,1.9-1.4c-6.5-1.6-11.4-5.6-14.4-11.6c-0.6-1.3-2.9-0.7-2.8,0.8
			c0.7,8.8,8.3,15.5,17.1,14.7c0.9-0.1,1.8-0.9,1.4-1.9c-3.1-9.2-10.5-15.8-20-17.8c-0.9-0.2-1.9,0.4-1.9,1.4
			c0.1,12.1,12.6,21.4,24.2,18c0.9-0.3,1.4-1.3,0.9-2.2c-3.5-6.2-8.1-11.7-13.7-16.1c-2.7-2.1-9-7.4-12.7-3.9
			c-7.4,7.1,19.7,20.5,23.9,22.2c1.8,0.7,2.6-2.2,0.8-2.9c-4.3-1.7-8.5-3.9-12.3-6.5c-1.3-0.9-12.7-8.7-8.1-10.6
			c1.1-0.4,4.8,2.8,5.6,3.4c2,1.5,3.9,3.2,5.6,4.9c3.3,3.3,5.9,7,8.2,11c0.3-0.7,0.6-1.5,0.9-2.2c-9.8,2.9-20.3-4.8-20.4-15.1
			c-0.6,0.5-1.3,1-1.9,1.4c8.5,1.7,15.1,7.5,17.9,15.7c0.5-0.6,1-1.3,1.4-1.9c-7.1,0.7-13.6-4.4-14.1-11.7c-0.9,0.3-1.9,0.5-2.8,0.8
			c3.3,6.6,9,11.2,16.2,13c0.8,0.2,2-0.4,1.9-1.4c-0.5-4-2.3-7-5.7-9.2c-1.3-0.9-2.7,0.8-2.1,2.1c-0.1,0.8-0.2,1.7-0.3,2.5
			c0.7,0,1.4,0,2.1,0c-1.7-2-3.5-4-5.2-6c-0.9-1-2.6-0.2-2.6,1.1c0.1,2.1,0.5,3.2,1.9,4.7c0.7-0.7,1.4-1.4,2.1-2.1
			c-4-3.3-7-7.3-8.7-12.2c-1,0.3-1.9,0.5-2.9,0.8c1.5,3.7,2.6,7.3,3.4,11.2c0.8-0.5,1.7-1,2.5-1.5c0.7,0.4,1.5,0.9,2.2,1.3
			c1,1,3.1,0,2.5-1.5c-0.5-1.3-1-2.6-1.5-3.8c-0.8,0.5-1.7,1-2.5,1.5c1.7,1.8,2.9,3.6,3.7,5.9c0.2-0.6,0.5-1.1,0.7-1.7
			c-1.4,0.7-2.9,1.5-4.3,2.2c0.6,0.1,1.2,0.2,1.8,0.2c-2.2-2.9-3.7-6-4.7-9.5c-0.9,0.4-1.8,0.8-2.7,1.2c1.7,2.6,4,3.9,7.2,3.7
			c1-0.1,1.7-0.9,1.4-1.9c-0.5-1.9-1.2-2.8-2.8-4C64.9,160.7,63.4,163.3,65,164.4L65,164.4z"/>
	</g>
</g>
</svg>
