<?xml version="1.0" encoding="utf-8"?>
<!-- Generator: Adobe Illustrator 22.0.1, SVG Export Plug-In . SVG Version: 6.00 Build 0)  -->
<svg version="1.1" id="Layer_1" xmlns="http://www.w3.org/2000/svg" xmlns:xlink="http://www.w3.org/1999/xlink" x="0px" y="0px"
	 viewBox="0 0 177.5 113.8" style="enable-background:new 0 0 177.5 113.8;" xml:space="preserve">
<style type="text/css">
	.st0{fill:#002E0E;}
	.st1{fill:#4300A2;}
	.st2{fill:#5C3F00;}
	.st3{fill:#8B6600;}
	.st4{fill:#5C5800;}
	.st5{fill:#5C5300;}
	.st6{fill:#D08800;}
	.st7{fill:#000273;}
</style>
<g>
	<g>
		<path class="st0" d="M91.5,103.2c0-0.2,0.1-0.5,0.1-0.7c0.3-1.9-2.6-2.7-2.9-0.8c-0.1,0.6-0.2,1.2-0.3,1.7
			C89.4,103.1,90.5,103,91.5,103.2z"/>
	</g>
</g>
<g>
	<g>
		<path class="st1" d="M92,100.3c-5.1-17-19.5-28.1-34.2-36.8c-17.1-10.2-35.9-20.6-56.3-21c-1.1,0-1.9,1.3-1.3,2.3
			C19,73.3,51.3,87.9,82.9,97.9c1.8,0.6,2.6-2.3,0.8-2.9c-30.8-9.8-62.5-24-81-51.8c-0.4,0.8-0.9,1.5-1.3,2.3
			c19.4,0.3,37.2,10.2,53.5,19.8C69.3,73.7,84,84.4,89,101.1C89.6,102.9,92.5,102.1,92,100.3L92,100.3z"/>
	</g>
</g>
<g>
	<g>
		<path class="st1" d="M91.4,96.8C91.5,64,92.3,27,117.5,2.6c-0.9-0.4-1.7-0.7-2.6-1.1c3.8,33.4-5.5,67.2-25.9,93.8
			c-1.2,1.5,1.4,3,2.6,1.5c20.7-27,30.2-61.5,26.3-95.3c-0.1-1.2-1.6-2-2.6-1.1c-25.8,25-27,62.8-27,96.4
			C88.4,98.8,91.4,98.8,91.4,96.8L91.4,96.8z"/>
	</g>
</g>
<g>
	<g>
		<path class="st1" d="M91.6,98.4c11.5-11.2,25.1-19.8,39.4-26.9c7.4-3.7,15-7,22.7-10.1c3.6-1.5,7.3-2.9,11-4.3
			c2.5-1,11-5.6,9.7,0.2c-3.6,16.3-19.8,25.7-34.6,30.2c-16.6,5.1-35.1,9-52.5,9.2c-1.9,0-1.9,3,0,3c16.1-0.2,32.6-3.8,48.1-7.9
			c13.2-3.4,26.4-9.1,35.1-20.1c2.7-3.4,13.5-24.3,1.2-20.5c-13.8,4.3-27.7,10.6-40.7,17c-15.1,7.4-29.4,16.4-41.5,28.1
			C88,97.6,90.2,99.7,91.6,98.4L91.6,98.4z"/>
	</g>
</g>
<g>
	<g>
		<path class="st1" d="M90.3,90.4c-7.6-18.4-14.4-37-20.6-55.9c-0.5,0.6-1,1.3-1.4,1.9C78.7,35.9,80.6,52.6,81.9,60
			c1.9,10.8,2.4,21.8,1.9,32.8c-0.1,1.9,2.9,1.9,3,0c0.7-13.7-0.4-27.5-3.4-40.9c-1.7-7.7-5.2-18.9-15-18.5c-0.9,0-1.8,0.9-1.4,1.9
			c6.2,18.9,13.1,37.5,20.6,55.9C88.1,92.9,91,92.2,90.3,90.4L90.3,90.4z"/>
	</g>
</g>
<g>
	<g>
		<path class="st1" d="M94.1,94.1c-1-9.3,5.5-16.4,11.8-22.4c6.9-6.5,14.2-12.5,21.9-18.1c-0.8-0.4-1.5-0.9-2.3-1.3
			c0.1,9.7-7,16.7-13.9,22.5c-7.7,6.5-15.6,12.6-23.4,18.9c-1.5,1.2,0.6,3.3,2.1,2.1c9-7.2,18.5-14.1,26.9-22
			c6.2-5.8,11.4-12.7,11.2-21.5c0-1-1.3-2-2.3-1.3c-8.7,6.4-17.2,13.2-24.8,20.9c-6,6-11.3,13.3-10.3,22.2
			C91.3,96,94.3,96.1,94.1,94.1L94.1,94.1z"/>
	</g>
</g>
<g>
	<g>
		<path class="st1" d="M88.1,92.7c-7.1-11-14.2-22.1-21.3-33.2c-0.4,0.8-0.9,1.5-1.3,2.3C83.3,63,84.7,84.6,84.7,98.1
			c0,1.9,3,1.9,3,0c0.1-15.4-2.4-37.9-22.2-39.3c-1.1-0.1-1.9,1.3-1.3,2.3c7.1,11.1,14.2,22.1,21.3,33.2
			C86.6,95.9,89.2,94.4,88.1,92.7L88.1,92.7z"/>
	</g>
</g>
<g>
	<g>
		<path class="st2" d="M88,87.6c3.9-17.6,0.8-35.8-8.8-51.1c-1-1.6-3.6-0.1-2.6,1.5c9.1,14.6,12.1,32,8.5,48.8
			C84.7,88.7,87.6,89.5,88,87.6L88,87.6z"/>
	</g>
</g>
<g>
	<g>
		<path class="st2" d="M94,91.4c-0.5-9.5,6.3-16.7,12.9-22.7c6.8-6.2,14.4-11.6,22.4-16.1c1.7-1,0.2-3.5-1.5-2.6
			c-9.3,5.2-17.9,11.5-25.6,19C96.1,75,90.6,82.4,91,91.4C91.1,93.4,94.1,93.4,94,91.4L94,91.4z"/>
	</g>
</g>
<g>
	<g>
		<path class="st2" d="M89.3,90.3c4.2-20.7,0.4-42.2-10.8-60.1c-1-1.6-3.6-0.1-2.6,1.5C86.7,49,90.5,69.6,86.4,89.5
			C86.1,91.4,88.9,92.2,89.3,90.3L89.3,90.3z"/>
	</g>
</g>
<g>
	<g>
		<path class="st2" d="M94.4,92.7C93,77.8,94,62.9,97.7,48.4c0.5-1.9-2.4-2.7-2.9-0.8c-3.7,14.8-4.9,29.9-3.4,45.1
			C91.6,94.6,94.6,94.7,94.4,92.7L94.4,92.7z"/>
	</g>
</g>
<g>
	<g>
		<path class="st3" d="M73.6,26.6c-0.1,2.3,2.1,4,4.3,3.9c1.1,0,2.2-0.5,2.8-1.5c0.8-1.2,0-2.5-0.9-3.3c-1.7-1.6-4.4-2-6.4-1
			c-2.8,1.4-3.2,5.2-2.2,7.8c0.2,0.6,0.8,1.2,1.4,1.1c2.6-0.3,7.3-2.4,5.4-5.8c-1.1-2.1-5.3-2.9-5.8,0.1c-0.3,1.9,2.5,2.7,2.9,0.8
			c0.1-0.5-0.2,0-0.1,0.2c0.2,0.4,0.4,0.1,0.4,0.3c0,1-2.1,1.3-2.7,1.4c0.5,0.4,1,0.7,1.4,1.1c-0.5-1.5-0.8-4.1,1.2-4.5
			c1.3-0.3,2.5,0.4,3,1.6c0-0.5,0-1,0-1.5c-0.4,0.6-1.7,0-1.7-0.7C76.7,24.6,73.7,24.6,73.6,26.6L73.6,26.6z"/>
	</g>
</g>
<g>
	<g>
		<path class="st3" d="M97.1,48.3c0.3,0.1,0.5,0.3,0.6,0.7c0,0.1,0.1,0.2,0.1,0.2c0.2,0.2-0.4,0.1,0.1,0c0.4-0.1,0.6-0.1,0.9,0.1
			c0.2,0.1,0-0.1,0,0.1c0-0.2-0.2-0.3-0.1-0.1c0-0.2,0-0.2,0,0c-0.3,0.6-0.7,0.8-1.1,0.7c0-1,0-1.9,0-2.9c-1.3,0.4-2.6,0.8-3.9,1.2
			c-1.8,0.6-1.1,3.5,0.8,2.9c1.3-0.4,2.6-0.8,3.9-1.2c1.4-0.4,1.5-2.5,0-2.9c-3.2-0.8-3.4,4.2-0.7,4.9c1.5,0.4,2.9-1,3-2.4
			c0.2-1.5-0.7-3.1-2.1-3.8C96.9,44.8,95.4,47.4,97.1,48.3L97.1,48.3z"/>
	</g>
</g>
<g>
	<g>
		<path class="st3" d="M84.7,62.1c0.2-0.8,0.8-1.4,1.6-1.7c-0.6-0.5-1.3-1-1.9-1.4c0,0.8-0.8,1.4-1.6,1.2c0.3,0.2,0.6,0.5,0.9,0.7
			c-0.5-0.9-0.6-1.8-0.3-2.8c0.6-1.8-2.3-2.6-2.9-0.8c-0.4,1.2-0.4,2.4-0.1,3.6c0.2,0.6,0.5,1.4,0.9,1.8c0.4,0.4,1.2,0.5,1.8,0.5
			c2.3,0,4.3-2,4.3-4.3c0-0.9-1-1.8-1.9-1.4c-1.8,0.7-3.1,2-3.6,3.8C81.2,63.1,84.1,63.9,84.7,62.1L84.7,62.1z"/>
	</g>
</g>
<g>
	<g>
		<path class="st3" d="M126.2,51.3C126.2,51.1,126.2,51.1,126.2,51.3C126.3,51.1,126.3,51.1,126.2,51.3
			C126.3,51.2,126.3,51.2,126.2,51.3C126.3,51.2,126.3,51.2,126.2,51.3s-0.3,0.2-0.5,0.3c-0.1,0-0.2,0.1-0.3,0.1c0.2,0,0.2,0,0,0
			c-0.1,0-0.5,0-0.1,0c-0.2-0.1-0.2,0,0,0c-0.1-0.1-0.2-0.1,0,0c-0.1-0.1-0.1-0.1,0,0c-0.1-0.1-0.1-0.2-0.1-0.3
			c-0.3-0.7-1.4-0.9-2.1-0.5c-0.8,0.4-0.9,1.3-0.5,2.1c0.7,1.6,2.7,2,4.2,1.5c1.7-0.6,2.8-2.1,2.4-3.9
			C128.7,48.6,125.8,49.4,126.2,51.3L126.2,51.3z"/>
	</g>
</g>
<g>
	<g>
		<path class="st3" d="M127.8,53.2c-0.4-1.3-0.8-2.5-1.2-3.8c-0.9,0.4-1.8,0.8-2.7,1.2c0.1,0.3,0.2,0.5,0.1,0.9c0,0-0.1,0.1-0.1,0.2
			c0-0.2,0.1,0.1,0,0.1c0,0,0.1-0.1,0.2-0.1c0.2,0.1,0.2,0,0.4,0.1c0.2,0.1,0.3,0.2,0.3,0.3c0.1,0.2,0.1,0.3,0.1,0.2
			c-0.1-0.1,0.1,0.3,0,0.1c0-0.1,0,0.1,0,0.1s0.1-0.3,0-0.1c0,0.2,0,0,0-0.1c0.1-0.1-0.1,0.2-0.2,0.2c-0.2,0.1-1.4,0-1.6-0.2
			c1.1,1.6,3.7,0.1,2.6-1.5c-0.8-1.3-2.6-1.4-3.4,0c-0.6,1-0.7,2.5,0.2,3.3c1.2,1.2,3.1,0.5,3.9-0.8s0.7-2.9,0-4.2
			c-0.8-1.5-3.2-0.5-2.7,1.2c0.4,1.3,0.8,2.5,1.2,3.8C125.5,55.8,128.4,55.1,127.8,53.2L127.8,53.2z"/>
	</g>
</g>
<g>
	<g>
		<path class="st3" d="M126.6,52.2c0-0.5,0-0.9,0-1.4c0-0.8-0.7-1.5-1.5-1.5s-1.5,0.7-1.5,1.5c0,0.5,0,0.9,0,1.4
			c0,0.8,0.7,1.5,1.5,1.5S126.6,53.1,126.6,52.2L126.6,52.2z"/>
	</g>
</g>
<g>
	<g>
		<path class="st4" d="M93.9,90.1C94,78.4,98.2,67.5,106,58.9c1.3-1.4-0.8-3.6-2.1-2.1C95.6,66,91,77.6,90.9,90.1
			C90.9,92,93.9,92,93.9,90.1L93.9,90.1z"/>
	</g>
</g>
<g>
	<g>
		<path class="st5" d="M103.5,56.9c-0.2,0.1,0.1,0,0.2,0s0.1,0,0,0c0.1,0,0.1,0,0.2,0c-0.3-0.1,0.3,0.1,0,0c0.1,0,0.2,0.2,0.1,0
			c-0.3-0.2,0.2,0.2,0,0c0,0.1,0.1,0.3,0,0.1c0,0.2,0,0.3,0,0.1c0-0.1,0-0.1,0,0.1c0,0.2-0.1,0.3-0.3,0.4c-0.2,0.1,0.2-0.1-0.2,0.1
			c0.3-0.1-0.2,0-0.1,0c0.2,0-0.4,0-0.1,0s-0.2-0.1,0,0c0.1,0.1,0.2,0.2,0,0c0.2,0.2-0.1-0.2,0,0s-0.1-0.3,0-0.1
			c0-0.1,0.1-0.6,0-0.3c-0.2,0.8,0.2,1.7,1,1.8c0.8,0.2,1.6-0.2,1.8-1c0.6-2.5-2.8-4.5-4.6-2.6c-1.9,2.1,1,5.6,3.4,4.1
			c0.7-0.4,1-1.3,0.5-2.1C105.2,56.8,104.2,56.5,103.5,56.9L103.5,56.9z"/>
	</g>
</g>
<g>
	<g>
		<path class="st6" d="M104.8,59.1c1.9,0,1.9-3,0-3S102.9,59.1,104.8,59.1L104.8,59.1z"/>
	</g>
</g>
<g>
	<g>
		<path class="st6" d="M125.1,53.7c1.9,0,1.9-3,0-3C123.2,50.7,123.2,53.7,125.1,53.7L125.1,53.7z"/>
	</g>
</g>
<g>
	<g>
		<path class="st6" d="M75.1,29.4c1.9,0,1.9-3,0-3C73.2,26.4,73.2,29.4,75.1,29.4L75.1,29.4z"/>
	</g>
</g>
<g>
	<g>
		<path class="st6" d="M98.1,49.7c1.9,0,1.9-3,0-3C96.1,46.7,96.1,49.7,98.1,49.7L98.1,49.7z"/>
	</g>
</g>
<g>
	<g>
		<path class="st6" d="M85.9,60.5c1.9,0,1.9-3,0-3S84,60.5,85.9,60.5L85.9,60.5z"/>
	</g>
</g>
<g>
	<g>
		<path class="st7" d="M87.5,97.5c-17.8-3.4-35.9-2.5-53.3,2.8c-0.7,0.2-1.4,1.1-1,1.8c3.8,9.4,14.4,12.4,23.7,11.6
			c12.2-1,23.4-6.8,31.6-15.8c1.3-1.4-0.8-3.5-2.1-2.1c-6.7,7.3-15.4,12.5-25.2,14.3c-8.8,1.6-21.2,0.8-25.1-8.8
			c-0.3,0.6-0.7,1.2-1,1.8c16.8-5.1,34.4-6.1,51.7-2.8C88.6,100.8,89.4,97.9,87.5,97.5L87.5,97.5z"/>
	</g>
</g>
<g>
	<g>
		<path class="st7" d="M94.7,106.7c0,0,0,0.1,0,0.1c0.2,0.1,0.5,0.3,0.7,0.4c6.3,3.7,14.5,4.1,21.6,3.6c4.2-0.3,8.6-1.4,9.2-6.2
			c0.1-0.5-0.3-1.1-0.7-1.3c-10.3-5.3-21.3-8.1-32.9-8.3c-0.5,0-0.9,0.3-1.1,0.6c-0.6-1.9-3.2-2.2-4.1,0.1c-0.9,2.4,0.7,5.1,2.9,7.4
			C92.3,103.1,94.3,104.1,94.7,106.7z M91.4,97.3c0.2,0.4,0.7,0.8,1.3,0.8c5.8,0.1,11.4,0.7,17,2.2c2.8,0.7,5.5,1.7,8.2,2.7
			c2.4,1,7.2,2.5,2.3,4.3c-4.5,1.7-11.7,0.7-16.2-0.2c-2.7-0.5-5.3-1.5-7.7-2.9c-1.5-1-2.8-2.1-3.9-3.5c-0.2-0.2-1.1-1.5-2.1-2.6
			c0.1,0,0.1,0,0.2-0.1C90.9,97.9,91.2,97.7,91.4,97.3z"/>
			<!--the animated stem -->
			<div class="stem.svg">
			<svg xmlns="http://www.w3.org/2000/svg"  x="0px" y="0px"
			width="200px" height="150px"
				 viewBox="0 0 200.0 210.4" style="enable-background:new 0 0 200.0 210.4;" xml:space="preserve">
			<style type="text/css">
				.st0{fill:#006837;}
			</style>
			<g>
				<g>
					<path class="path" stroke="#006837"  stroke-width="3" stroke-linejoin="round" width="0" height="-25" stroke-linecap="round" stroke-miterlimit="5" stroke-dasharray="255" stroke-dashoffset="80" fill="none" d="M64.4,206.1c5.5-27.8-4.9-54.3-25.9-72.7c-10.8-9.5-19.9-18.7-23.9-33c-3.8-13.6-3.1-28.1,0.3-41.7
						c4.3-17.4,12.4-33.6,20.4-49.5c3.5-6.9-6.9-13-10.4-6.1C11.4,29.9-2.8,58.9,0.5,89.8C2,103.4,6.4,116.5,15,127.3
						c9.1,11.4,22.1,18.6,29.8,31.2c8,13.2,11,29.2,8,44.3C51.3,210.4,62.9,213.6,64.4,206.1L64.4,206.1z"/>

			      <path class="path" stroke="#006837" stroke-width="1" stroke-linejoin="round" width="1" height="2" stroke-linecap="round" stroke-miterlimit="10" stroke-dasharray="300" stroke-dashoffset="5" fill="none" d="M335 38.9c-43.7 0-79.1 35.4-79.1 79.1s35.4 79.1 79.1 79.1 79.1-35.4 79.1-79.1-35.4-79.1-79.1-79.1zM335 182.9c-35.8 0-64.9-29.1-64.9-64.9s29.1-64.9 64.9-64.9 64.9 29.1 64.9 64.9-29.1 64.9-64.9 64.9z"/>
				</g>
			</g>
			</svg>

	</g>
</g>
</svg>
